<?xml version="1.0" encoding="UTF-8" standalone="no"?>
<!-- Created with Inkscape (http://www.inkscape.org/) -->

<svg
   xmlns:dc="http://purl.org/dc/elements/1.1/"
   xmlns:cc="http://creativecommons.org/ns#"
   xmlns:rdf="http://www.w3.org/1999/02/22-rdf-syntax-ns#"
   xmlns:svg="http://www.w3.org/2000/svg"
   xmlns="http://www.w3.org/2000/svg"
   xmlns:xlink="http://www.w3.org/1999/xlink"
   xmlns:sodipodi="http://sodipodi.sourceforge.net/DTD/sodipodi-0.dtd"
   xmlns:inkscape="http://www.inkscape.org/namespaces/inkscape"
   width="488.27536"
   height="282.01074"
   viewBox="0 0 488.27537 282.01075"
   id="svg4598"
   version="1.1"
   inkscape:version="0.91 r13725"
   sodipodi:docname="chlamy_both_km.svg">
  <defs
     id="defs4600">
    <clipPath
       id="clip2">
      <path
         inkscape:connector-curvature="0"
         d="M 23.699219,23.054688 198,23.054688 198,193 23.699219,193 Z m 0,0"
         id="path4397" />
    </clipPath>
    <clipPath
       id="clip1">
      <path
         inkscape:connector-curvature="0"
         d="M 23.699219,23.054688 198,23.054688 198,193 23.699219,193 Z m 0,0"
         id="path4394" />
    </clipPath>
    <clipPath
       id="clip2-0">
      <path
         inkscape:connector-curvature="0"
         d="M 23.699219,22.054688 198,22.054688 198,193 23.699219,193 Z m 0,0"
         id="path4082" />
    </clipPath>
    <clipPath
       id="clip1-6">
      <path
         inkscape:connector-curvature="0"
         d="M 23.699219,22.054688 198,22.054688 198,193 23.699219,193 Z m 0,0"
         id="path4079" />
    </clipPath>
  </defs>
  <sodipodi:namedview
     id="base"
     pagecolor="#ffffff"
     bordercolor="#666666"
     borderopacity="1.0"
     inkscape:pageopacity="0.0"
     inkscape:pageshadow="2"
     inkscape:zoom="1.1716498"
     inkscape:cx="661.91202"
     inkscape:cy="269.13404"
     inkscape:document-units="px"
     inkscape:current-layer="layer1"
     showgrid="false"
     inkscape:window-width="2558"
     inkscape:window-height="1414"
     inkscape:window-x="0"
     inkscape:window-y="24"
     inkscape:window-maximized="1"
     fit-margin-top="10"
     fit-margin-left="10"
     fit-margin-right="10"
     fit-margin-bottom="10"
     units="px" />
  <metadata
     id="metadata4603">
    <rdf:RDF>
      <cc:Work
         rdf:about="">
        <dc:format>image/svg+xml</dc:format>
        <dc:type
           rdf:resource="http://purl.org/dc/dcmitype/StillImage" />
        <dc:title></dc:title>
      </cc:Work>
    </rdf:RDF>
  </metadata>
  <g
     inkscape:label="Layer 1"
     inkscape:groupmode="layer"
     id="layer1"
     transform="translate(-1.429924,-77.078316)">
    <g
       transform="matrix(1.25,0,0,1.25,2.8994512,56.781639)"
       id="g4462"
       style="fill:#000000;fill-opacity:1">
      <use
         height="100%"
         width="100%"
         id="use4464"
         y="118.67969"
         x="14.108398"
         xlink:href="#glyph1-1" />
      <use
         height="100%"
         width="100%"
         id="use4466"
         y="111.34277"
         x="14.108398"
         xlink:href="#glyph1-2" />
      <use
         height="100%"
         width="100%"
         id="use4468"
         y="103.40039"
         x="14.108398"
         xlink:href="#glyph1-3" />
    </g>
    <g
       transform="matrix(1.25,0,0,1.25,334.22949,113.97518)"
       id="g4139"
       style="fill:#000000;fill-opacity:1">
      <use
         height="100%"
         width="100%"
         id="use4141"
         y="209.14746"
         x="99.550781"
         xlink:href="#glyph0-1" />
      <use
         height="100%"
         width="100%"
         id="use4143"
         y="209.14746"
         x="106.8877"
         xlink:href="#glyph0-2" />
      <use
         height="100%"
         width="100%"
         id="use4145"
         y="209.14746"
         x="114.83008"
         xlink:href="#glyph0-3" />
    </g>
    <g
       transform="matrix(1.25,0,0,1.25,334.22949,113.97518)"
       id="g4147"
       style="fill:#000000;fill-opacity:1">
      <use
         height="100%"
         width="100%"
         id="use4149"
         y="118.17969"
         x="14.108398"
         xlink:href="#glyph1-1" />
      <use
         height="100%"
         width="100%"
         id="use4151"
         y="110.84277"
         x="14.108398"
         xlink:href="#glyph1-2" />
      <use
         height="100%"
         width="100%"
         id="use4153"
         y="102.90039"
         x="14.108398"
         xlink:href="#glyph1-3" />
    </g>
    <g
       transform="matrix(1.25,0,0,1.25,334.22949,113.97518)"
       id="g4259"
       style="fill:#000000;fill-opacity:1">
      <use
         height="100%"
         width="100%"
         id="use4261"
         y="14.632812"
         x="23.699219"
         xlink:href="#glyph3-1" />
      <use
         height="100%"
         width="100%"
         id="use4263"
         y="14.632812"
         x="30.103516"
         xlink:href="#glyph3-2" />
      <use
         height="100%"
         width="100%"
         id="use4265"
         y="14.632812"
         x="42.567383"
         xlink:href="#glyph3-3" />
      <use
         height="100%"
         width="100%"
         id="use4267"
         y="14.632812"
         x="46.238281"
         xlink:href="#glyph3-4" />
    </g>
    <g
       id="g7357">
      <g
         transform="translate(2e-4,28.381551)"
         id="g6791">
        <g
           transform="matrix(1.2682404,0,0,1.2536584,1.4550715,55.815344)"
           style="clip-rule:nonzero"
           id="g4406"
           clip-path="url(#clip1)">
          <path
             inkscape:connector-curvature="0"
             id="path4408"
             d="m 23.699219,192.30078 173.703121,0 0,-169.246092 -173.703121,0 z m 0,0"
             style="fill:#ffffff;fill-opacity:1;fill-rule:nonzero;stroke:none" />
        </g>
        <g
           transform="matrix(1.2722262,0,0,1.2575984,1.3606101,55.181843)"
           style="clip-rule:nonzero"
           id="g4450"
           clip-path="url(#clip2)">
          <path
             inkscape:connector-curvature="0"
             id="path4452"
             d="m 23.699219,192.30078 173.703121,0 0,-169.246092 -173.703121,0 z m 0,0"
             style="fill:none;stroke:#333333;stroke-width:1.06697798;stroke-linecap:round;stroke-linejoin:round;stroke-miterlimit:10;stroke-opacity:1" />
        </g>
        <path
           inkscape:connector-curvature="0"
           id="path4410"
           d="m 57.705632,185.09639 c 0,4.15033 -6.292944,4.15033 -6.292944,0 0,-4.14542 6.292944,-4.14542 6.292944,0"
           style="fill:#abd7e6;fill-opacity:1;fill-rule:nonzero;stroke:#abd7e6;stroke-width:0.89094687;stroke-linecap:round;stroke-linejoin:round;stroke-miterlimit:10;stroke-opacity:1" />
        <path
           inkscape:connector-curvature="0"
           id="path4412"
           d="m 46.646056,174.53019 c 0,4.14543 -6.292945,4.14543 -6.292945,0 0,-4.15032 6.292945,-4.15032 6.292945,0"
           style="fill:#abd7e6;fill-opacity:1;fill-rule:nonzero;stroke:#abd7e6;stroke-width:0.89094687;stroke-linecap:round;stroke-linejoin:round;stroke-miterlimit:10;stroke-opacity:1" />
        <path
           inkscape:connector-curvature="0"
           id="path4414"
           d="m 47.21904,174.77432 c 0,4.14544 -6.292945,4.14544 -6.292945,0 0,-4.15031 6.292945,-4.15031 6.292945,0"
           style="fill:#abd7e6;fill-opacity:1;fill-rule:nonzero;stroke:#abd7e6;stroke-width:0.89094687;stroke-linecap:round;stroke-linejoin:round;stroke-miterlimit:10;stroke-opacity:1" />
        <path
           inkscape:connector-curvature="0"
           id="path4416"
           d="m 44.640611,172.38178 c 0,4.14544 -6.292943,4.14544 -6.292943,0 0,-4.14543 6.292943,-4.14543 6.292943,0"
           style="fill:#abd7e6;fill-opacity:1;fill-rule:nonzero;stroke:#abd7e6;stroke-width:0.89094687;stroke-linecap:round;stroke-linejoin:round;stroke-miterlimit:10;stroke-opacity:1" />
        <path
           inkscape:connector-curvature="0"
           id="path4418"
           d="m 120.71905,258.27866 c 0,4.14542 -6.29294,4.14542 -6.29294,0 0,-4.15033 6.29294,-4.15033 6.29294,0"
           style="fill:#0000ff;fill-opacity:1;fill-rule:nonzero;stroke:#0000ff;stroke-width:0.89094687;stroke-linecap:round;stroke-linejoin:round;stroke-miterlimit:10;stroke-opacity:1" />
        <path
           inkscape:connector-curvature="0"
           id="path4420"
           d="m 46.636175,174.53019 c 0,4.14543 -6.292943,4.14543 -6.292943,0 0,-4.15032 6.292943,-4.15032 6.292943,0"
           style="fill:#abd7e6;fill-opacity:1;fill-rule:nonzero;stroke:#abd7e6;stroke-width:0.89094687;stroke-linecap:round;stroke-linejoin:round;stroke-miterlimit:10;stroke-opacity:1" />
        <path
           inkscape:connector-curvature="0"
           id="path4422"
           d="m 244.32551,94.512109 c 0,4.145434 -6.29294,4.145434 -6.29294,0 0,-4.150314 6.29294,-4.150314 6.29294,0"
           style="fill:#ff0000;fill-opacity:1;fill-rule:nonzero;stroke:#ff0000;stroke-width:0.89094687;stroke-linecap:round;stroke-linejoin:round;stroke-miterlimit:10;stroke-opacity:1" />
        <path
           inkscape:connector-curvature="0"
           id="path4424"
           d="m 242.39416,94.4584 c 0,4.150315 -6.29294,4.150315 -6.29294,0 0,-4.145431 6.29294,-4.145431 6.29294,0"
           style="fill:#ff0000;fill-opacity:1;fill-rule:nonzero;stroke:#ff0000;stroke-width:0.89094687;stroke-linecap:round;stroke-linejoin:round;stroke-miterlimit:10;stroke-opacity:1" />
        <path
           inkscape:connector-curvature="0"
           id="path4426"
           d="m 211.73952,219.18757 c 0,4.14544 -6.29294,4.14544 -6.29294,0 0,-4.14543 6.29294,-4.14543 6.29294,0"
           style="fill:#006300;fill-opacity:1;fill-rule:nonzero;stroke:#006300;stroke-width:0.89094687;stroke-linecap:round;stroke-linejoin:round;stroke-miterlimit:10;stroke-opacity:1" />
        <path
           inkscape:connector-curvature="0"
           id="path4428"
           d="m 218.41281,185.67745 c 0,4.14543 -6.29295,4.14543 -6.29295,0 0,-4.14544 6.29295,-4.14544 6.29295,0"
           style="fill:#006300;fill-opacity:1;fill-rule:nonzero;stroke:#006300;stroke-width:0.89094687;stroke-linecap:round;stroke-linejoin:round;stroke-miterlimit:10;stroke-opacity:1" />
        <path
           inkscape:connector-curvature="0"
           id="path4430"
           d="m 205.33298,230.49108 c 0,4.14542 -6.29296,4.14542 -6.29296,0 0,-4.14544 6.29296,-4.14544 6.29296,0"
           style="fill:#006300;fill-opacity:1;fill-rule:nonzero;stroke:#006300;stroke-width:0.89094687;stroke-linecap:round;stroke-linejoin:round;stroke-miterlimit:10;stroke-opacity:1" />
        <path
           inkscape:connector-curvature="0"
           id="path4432"
           d="m 217.33599,213.20623 c 0,4.14544 -6.29294,4.14544 -6.29294,0 0,-4.14542 6.29294,-4.14542 6.29294,0"
           style="fill:#006300;fill-opacity:1;fill-rule:nonzero;stroke:#006300;stroke-width:0.89094687;stroke-linecap:round;stroke-linejoin:round;stroke-miterlimit:10;stroke-opacity:1" />
        <path
           inkscape:connector-curvature="0"
           id="path4434"
           d="m 151.69476,279.36714 c 0,4.14544 -6.29294,4.14544 -6.29294,0 0,-4.15031 6.29294,-4.15031 6.29294,0"
           style="fill:#0000ff;fill-opacity:1;fill-rule:nonzero;stroke:#0000ff;stroke-width:0.89094687;stroke-linecap:round;stroke-linejoin:round;stroke-miterlimit:10;stroke-opacity:1" />
        <path
           inkscape:connector-curvature="0"
           id="path4436"
           d="m 128.61734,270.90538 c 0,4.14543 -6.29295,4.14543 -6.29295,0 0,-4.14544 6.29295,-4.14544 6.29295,0"
           style="fill:#0000ff;fill-opacity:1;fill-rule:nonzero;stroke:#0000ff;stroke-width:0.89094687;stroke-linecap:round;stroke-linejoin:round;stroke-miterlimit:10;stroke-opacity:1" />
        <path
           inkscape:connector-curvature="0"
           id="path4438"
           d="m 152.53943,286.78399 c 0,4.14544 -6.29297,4.14544 -6.29297,0 0,-4.1503 6.29297,-4.1503 6.29297,0"
           style="fill:#0000ff;fill-opacity:1;fill-rule:nonzero;stroke:#0000ff;stroke-width:0.89094687;stroke-linecap:round;stroke-linejoin:round;stroke-miterlimit:10;stroke-opacity:1" />
        <path
           inkscape:connector-curvature="0"
           id="path4440"
           d="m 123.79143,266.68671 c 0,4.14543 -6.29294,4.14543 -6.29294,0 0,-4.15032 6.29294,-4.15032 6.29294,0"
           style="fill:#0000ff;fill-opacity:1;fill-rule:nonzero;stroke:#0000ff;stroke-width:0.89094687;stroke-linecap:round;stroke-linejoin:round;stroke-miterlimit:10;stroke-opacity:1" />
        <path
           inkscape:connector-curvature="0"
           id="path4442"
           d="m 46.646056,174.53019 c 0,4.14543 -6.292945,4.14543 -6.292945,0 0,-4.14544 6.292945,-4.14544 6.292945,0"
           style="fill:#abd7e6;fill-opacity:1;fill-rule:nonzero;stroke:#abd7e6;stroke-width:0.89094687;stroke-linecap:round;stroke-linejoin:round;stroke-miterlimit:10;stroke-opacity:1" />
        <path
           inkscape:connector-curvature="0"
           id="path4444"
           d="m 57.705632,185.15499 c 0,4.14543 -6.292944,4.14543 -6.292944,0 0,-4.14543 6.292944,-4.14543 6.292944,0"
           style="fill:#abd7e6;fill-opacity:1;fill-rule:nonzero;stroke:#abd7e6;stroke-width:0.89094687;stroke-linecap:round;stroke-linejoin:round;stroke-miterlimit:10;stroke-opacity:1" />
        <path
           inkscape:connector-curvature="0"
           id="path4448"
           d="m 44.922164,172.48432 c 0,4.14544 -6.292944,4.14544 -6.292944,0 0,-4.14543 6.292944,-4.14543 6.292944,0"
           style="fill:#abd7e6;fill-opacity:1;fill-rule:nonzero;stroke:#abd7e6;stroke-width:0.89094687;stroke-linecap:round;stroke-linejoin:round;stroke-miterlimit:10;stroke-opacity:1" />
        <path
           inkscape:connector-curvature="0"
           id="path4446"
           d="m 44.769039,172.50385 c 0,4.14544 -6.292945,4.14544 -6.292945,0 0,-4.14543 6.292945,-4.14543 6.292945,0"
           style="fill:#ff0000;fill-opacity:1;fill-rule:nonzero;stroke:#ff0000;stroke-width:0.89094687;stroke-linecap:round;stroke-linejoin:round;stroke-miterlimit:10;stroke-opacity:1" />
      </g>
      <g
         transform="translate(6.0002,28.381551)"
         id="g6817">
        <g
           transform="matrix(1.25,0,0,1.25,226.2853,56.649025)"
           style="clip-rule:nonzero"
           id="g4091"
           clip-path="url(#clip1-6)">
          <path
             inkscape:connector-curvature="0"
             id="path4093"
             d="m 23.699219,192.30078 173.703121,0 0,-170.246092 -173.703121,0 z m 0,0"
             style="fill:#ffffff;fill-opacity:1;fill-rule:nonzero;stroke:none" />
        </g>
        <path
           inkscape:connector-curvature="0"
           id="path4095"
           d="m 436.83217,196.4586 c 0,4.15038 -6.2207,4.15038 -6.2207,0 0,-4.14552 6.2207,-4.14552 6.2207,0"
           style="fill:#006300;fill-opacity:1;fill-rule:nonzero;stroke:#006300;stroke-width:0.88582629;stroke-linecap:round;stroke-linejoin:round;stroke-miterlimit:10;stroke-opacity:1" />
        <path
           inkscape:connector-curvature="0"
           id="path4097"
           d="m 466.05581,93.890235 c 0,4.145508 -6.22071,4.145508 -6.22071,0 0,-4.14551 6.22071,-4.14551 6.22071,0"
           style="fill:#ff0000;fill-opacity:1;fill-rule:nonzero;stroke:#ff0000;stroke-width:0.88582629;stroke-linecap:round;stroke-linejoin:round;stroke-miterlimit:10;stroke-opacity:1" />
        <path
           inkscape:connector-curvature="0"
           id="path4099"
           d="m 439.84487,175.51133 c 0,4.1455 -6.22071,4.1455 -6.22071,0 0,-4.14551 6.22071,-4.14551 6.22071,0"
           style="fill:#006300;fill-opacity:1;fill-rule:nonzero;stroke:#006300;stroke-width:0.88582629;stroke-linecap:round;stroke-linejoin:round;stroke-miterlimit:10;stroke-opacity:1" />
        <path
           inkscape:connector-curvature="0"
           id="path4101"
           d="m 349.7228,266.91269 c 0,4.15039 -6.22071,4.15039 -6.22071,0 0,-4.14551 6.22071,-4.14551 6.22071,0"
           style="fill:#0000ff;fill-opacity:1;fill-rule:nonzero;stroke:#0000ff;stroke-width:0.88582629;stroke-linecap:round;stroke-linejoin:round;stroke-miterlimit:10;stroke-opacity:1" />
        <path
           inkscape:connector-curvature="0"
           id="path4103"
           d="m 381.63197,282.43027 c 0,4.15039 -6.2207,4.15039 -6.2207,0 0,-4.14551 6.2207,-4.14551 6.2207,0"
           style="fill:#0000ff;fill-opacity:1;fill-rule:nonzero;stroke:#0000ff;stroke-width:0.88582629;stroke-linecap:round;stroke-linejoin:round;stroke-miterlimit:10;stroke-opacity:1" />
        <path
           inkscape:connector-curvature="0"
           id="path4105"
           d="m 356.19252,274.53965 c 0,4.15038 -6.2207,4.15038 -6.2207,0 0,-4.14552 6.2207,-4.14552 6.2207,0"
           style="fill:#0000ff;fill-opacity:1;fill-rule:nonzero;stroke:#0000ff;stroke-width:0.88582629;stroke-linecap:round;stroke-linejoin:round;stroke-miterlimit:10;stroke-opacity:1" />
        <path
           inkscape:connector-curvature="0"
           id="path4107"
           d="m 280.02553,178.15293 c 0,4.1455 -6.2207,4.1455 -6.2207,0 0,-4.14551 6.2207,-4.14551 6.2207,0"
           style="fill:#abd7e6;fill-opacity:1;fill-rule:nonzero;stroke:#abd7e6;stroke-width:0.88582629;stroke-linecap:round;stroke-linejoin:round;stroke-miterlimit:10;stroke-opacity:1" />
        <path
           inkscape:connector-curvature="0"
           id="path4109"
           d="m 273.46303,169.43711 c 0,4.14551 -6.2207,4.14551 -6.2207,0 0,-4.14551 6.2207,-4.14551 6.2207,0"
           style="fill:#abd7e6;fill-opacity:1;fill-rule:nonzero;stroke:#abd7e6;stroke-width:0.88582629;stroke-linecap:round;stroke-linejoin:round;stroke-miterlimit:10;stroke-opacity:1" />
        <path
           inkscape:connector-curvature="0"
           id="path4111"
           d="m 275.50405,161.41953 c 0,4.14551 -6.22071,4.14551 -6.22071,0 0,-4.15039 6.22071,-4.15039 6.22071,0"
           style="fill:#abd7e6;fill-opacity:1;fill-rule:nonzero;stroke:#abd7e6;stroke-width:0.88582629;stroke-linecap:round;stroke-linejoin:round;stroke-miterlimit:10;stroke-opacity:1" />
        <path
           inkscape:connector-curvature="0"
           id="path4113"
           d="m 271.10463,168.01133 c 0,4.15039 -6.2207,4.15039 -6.2207,0 0,-4.14551 6.2207,-4.14551 6.2207,0"
           style="fill:#abd7e6;fill-opacity:1;fill-rule:nonzero;stroke:#abd7e6;stroke-width:0.88582629;stroke-linecap:round;stroke-linejoin:round;stroke-miterlimit:10;stroke-opacity:1" />
        <path
           inkscape:connector-curvature="0"
           id="path4115"
           d="m 348.5851,254.91073 c 0,4.14552 -6.2207,4.14552 -6.2207,0 0,-4.15038 6.2207,-4.15038 6.2207,0"
           style="fill:#0000ff;fill-opacity:1;fill-rule:nonzero;stroke:#0000ff;stroke-width:0.88582629;stroke-linecap:round;stroke-linejoin:round;stroke-miterlimit:10;stroke-opacity:1" />
        <path
           inkscape:connector-curvature="0"
           id="path4117"
           d="m 271.97377,165.04746 c 0,4.14551 -6.2207,4.14551 -6.2207,0 0,-4.15039 6.2207,-4.15039 6.2207,0"
           style="fill:#abd7e6;fill-opacity:1;fill-rule:nonzero;stroke:#abd7e6;stroke-width:0.88582629;stroke-linecap:round;stroke-linejoin:round;stroke-miterlimit:10;stroke-opacity:1" />
        <path
           inkscape:connector-curvature="0"
           id="path4119"
           d="m 466.28041,95.062115 c 0,4.150388 -6.2207,4.150388 -6.2207,0 0,-4.14551 6.2207,-4.14551 6.2207,0"
           style="fill:#ff0000;fill-opacity:1;fill-rule:nonzero;stroke:#ff0000;stroke-width:0.88582629;stroke-linecap:round;stroke-linejoin:round;stroke-miterlimit:10;stroke-opacity:1" />
        <path
           inkscape:connector-curvature="0"
           id="path4121"
           d="m 427.36928,204.78378 c 0,4.14552 -6.22071,4.14552 -6.22071,0 0,-4.15038 6.22071,-4.15038 6.22071,0"
           style="fill:#006300;fill-opacity:1;fill-rule:nonzero;stroke:#006300;stroke-width:0.88582629;stroke-linecap:round;stroke-linejoin:round;stroke-miterlimit:10;stroke-opacity:1" />
        <path
           inkscape:connector-curvature="0"
           id="path4123"
           d="m 439.63978,196.92246 c 0,4.14551 -6.2207,4.14551 -6.2207,0 0,-4.14551 6.2207,-4.14551 6.2207,0"
           style="fill:#006300;fill-opacity:1;fill-rule:nonzero;stroke:#006300;stroke-width:0.88582629;stroke-linecap:round;stroke-linejoin:round;stroke-miterlimit:10;stroke-opacity:1" />
        <path
           inkscape:connector-curvature="0"
           id="path4125"
           d="m 379.4103,287.35215 c 0,4.14551 -6.2207,4.14551 -6.2207,0 0,-4.14552 6.2207,-4.14552 6.2207,0"
           style="fill:#0000ff;fill-opacity:1;fill-rule:nonzero;stroke:#0000ff;stroke-width:0.88582629;stroke-linecap:round;stroke-linejoin:round;stroke-miterlimit:10;stroke-opacity:1" />
        <path
           inkscape:connector-curvature="0"
           id="path4127"
           d="m 273.05776,165.39902 c 0,4.14551 -6.22071,4.14551 -6.22071,0 0,-4.15039 6.22071,-4.15039 6.22071,0"
           style="fill:#abd7e6;fill-opacity:1;fill-rule:nonzero;stroke:#abd7e6;stroke-width:0.88582629;stroke-linecap:round;stroke-linejoin:round;stroke-miterlimit:10;stroke-opacity:1" />
        <path
           inkscape:connector-curvature="0"
           id="path4129"
           d="m 280.43569,177.5914 c 0,4.14551 -6.22071,4.14551 -6.22071,0 0,-4.1455 6.22071,-4.1455 6.22071,0"
           style="fill:#abd7e6;fill-opacity:1;fill-rule:nonzero;stroke:#abd7e6;stroke-width:0.88582629;stroke-linecap:round;stroke-linejoin:round;stroke-miterlimit:10;stroke-opacity:1" />
        <path
           inkscape:connector-curvature="0"
           id="path4133"
           d="m 270.59194,166.78086 c 0,4.14551 -6.22071,4.14551 -6.22071,0 0,-4.14551 6.22071,-4.14551 6.22071,0"
           style="fill:#abd7e6;fill-opacity:1;fill-rule:nonzero;stroke:#abd7e6;stroke-width:0.88582629;stroke-linecap:round;stroke-linejoin:round;stroke-miterlimit:10;stroke-opacity:1" />
        <path
           inkscape:connector-curvature="0"
           id="path4131"
           d="m 268.88783,164.58847 c 0,4.14551 -6.2207,4.14551 -6.2207,0 0,-4.1455 6.2207,-4.1455 6.2207,0"
           style="fill:#ff0000;fill-opacity:1;fill-rule:nonzero;stroke:#ff0000;stroke-width:0.88582629;stroke-linecap:round;stroke-linejoin:round;stroke-miterlimit:10;stroke-opacity:1" />
        <g
           transform="matrix(1.25,0,0,1.25,226.2853,56.649025)"
           style="clip-rule:nonzero"
           id="g4135"
           clip-path="url(#clip2-0)">
          <path
             inkscape:connector-curvature="0"
             id="path4137"
             d="m 23.699219,192.30078 173.703121,0 0,-170.246092 -173.703121,0 z m 0,0"
             style="fill:none;stroke:#333333;stroke-width:1.06697798;stroke-linecap:round;stroke-linejoin:round;stroke-miterlimit:10;stroke-opacity:1" />
        </g>
      </g>
    </g>
    <text
       xml:space="preserve"
       style="font-style:normal;font-variant:normal;font-weight:normal;font-stretch:normal;font-size:20px;line-height:125%;font-family:'DejaVu Sans';-inkscape-font-specification:'DejaVu Sans';letter-spacing:0px;word-spacing:0px;fill:#000000;fill-opacity:1;stroke:none;stroke-width:1px;stroke-linecap:butt;stroke-linejoin:miter;stroke-opacity:1"
       x="38.681641"
       y="102.27363"
       id="text6670"
       sodipodi:linespacing="125%"><tspan
         sodipodi:role="line"
         id="tspan6672"
         x="38.681641"
         y="102.27363">SNP-based</tspan></text>
    <text
       xml:space="preserve"
       style="font-style:normal;font-variant:normal;font-weight:normal;font-stretch:normal;font-size:20px;line-height:125%;font-family:'DejaVu Sans';-inkscape-font-specification:'DejaVu Sans';letter-spacing:0px;word-spacing:0px;fill:#000000;fill-opacity:1;stroke:none;stroke-width:1px;stroke-linecap:butt;stroke-linejoin:miter;stroke-opacity:1"
       x="268.58154"
       y="102.41523"
       id="text6674"
       sodipodi:linespacing="125%"><tspan
         sodipodi:role="line"
         id="tspan6676"
         x="268.58154"
         y="102.41523">kWIP</tspan></text>
    <text
       xml:space="preserve"
       style="font-style:normal;font-weight:normal;font-size:40px;line-height:125%;font-family:sans-serif;letter-spacing:0px;word-spacing:0px;fill:#000000;fill-opacity:1;stroke:none;stroke-width:1px;stroke-linecap:butt;stroke-linejoin:miter;stroke-opacity:1"
       x="-233.29262"
       y="22.098869"
       id="text7335"
       sodipodi:linespacing="125%"
       transform="matrix(0,-1,1,0,0,0)"><tspan
         sodipodi:role="line"
         id="tspan7337"
         x="-233.29262"
         y="22.098869"
         style="font-style:normal;font-variant:normal;font-weight:normal;font-stretch:normal;font-size:14.375px;font-family:'DejaVu Sans';-inkscape-font-specification:'DejaVu Sans'">PC2</tspan></text>
    <text
       xml:space="preserve"
       style="font-style:normal;font-weight:normal;font-size:40px;line-height:125%;font-family:sans-serif;letter-spacing:0px;word-spacing:0px;fill:#000000;fill-opacity:1;stroke:none;stroke-width:1px;stroke-linecap:butt;stroke-linejoin:miter;stroke-opacity:1"
       x="241.68616"
       y="348.8855"
       id="text7335-7"
       sodipodi:linespacing="125%"><tspan
         sodipodi:role="line"
         x="241.68616"
         y="348.8855"
         style="font-style:normal;font-variant:normal;font-weight:normal;font-stretch:normal;font-size:14.375px;font-family:'DejaVu Sans';-inkscape-font-specification:'DejaVu Sans'"
         id="tspan7409">PC1</tspan></text>
  </g>
</svg>
